<mxfile host="Electron" modified="2023-10-20T02:15:05.135Z" agent="Mozilla/5.0 (Macintosh; Intel Mac OS X 10_15_7) AppleWebKit/537.36 (KHTML, like Gecko) draw.io/21.7.5 Chrome/114.0.5735.289 Electron/25.8.1 Safari/537.36" etag="bIYzShMYqCkGnu5l_oPz" version="21.7.5" type="device">
  <diagram name="Page-1" id="pB4v77xtocX2of5BtnRN">
    <mxGraphModel dx="843" dy="599" grid="1" gridSize="10" guides="1" tooltips="1" connect="1" arrows="1" fold="1" page="1" pageScale="1" pageWidth="850" pageHeight="1100" math="0" shadow="0">
      <root>
        <mxCell id="0" />
        <mxCell id="1" parent="0" />
        <mxCell id="47yzpQjx6dCV3XtQbYlD-1" value="" style="edgeStyle=orthogonalEdgeStyle;rounded=0;orthogonalLoop=1;jettySize=auto;html=1;" edge="1" parent="1" source="eJ7ICJRXBDRrcosSVNbU-6" target="eJ7ICJRXBDRrcosSVNbU-8">
          <mxGeometry relative="1" as="geometry" />
        </mxCell>
        <mxCell id="eJ7ICJRXBDRrcosSVNbU-6" value="input [1x4x512x512]&lt;br style=&quot;border-color: var(--border-color); text-align: left;&quot;&gt;&lt;span style=&quot;text-align: left;&quot;&gt;:RGB + mask&lt;/span&gt;" style="rounded=1;whiteSpace=wrap;html=1;" parent="1" vertex="1">
          <mxGeometry x="110" y="90" width="120" height="60" as="geometry" />
        </mxCell>
        <mxCell id="47yzpQjx6dCV3XtQbYlD-4" style="edgeStyle=orthogonalEdgeStyle;rounded=0;orthogonalLoop=1;jettySize=auto;html=1;" edge="1" parent="1" source="eJ7ICJRXBDRrcosSVNbU-8" target="47yzpQjx6dCV3XtQbYlD-3">
          <mxGeometry relative="1" as="geometry" />
        </mxCell>
        <mxCell id="eJ7ICJRXBDRrcosSVNbU-8" value="compute tickness by img w&amp;amp;h and input w&amp;amp;h." style="rounded=1;whiteSpace=wrap;html=1;" parent="1" vertex="1">
          <mxGeometry x="110" y="190" width="120" height="60" as="geometry" />
        </mxCell>
        <mxCell id="47yzpQjx6dCV3XtQbYlD-11" value="" style="edgeStyle=orthogonalEdgeStyle;rounded=0;orthogonalLoop=1;jettySize=auto;html=1;" edge="1" parent="1" source="47yzpQjx6dCV3XtQbYlD-3" target="47yzpQjx6dCV3XtQbYlD-10">
          <mxGeometry relative="1" as="geometry" />
        </mxCell>
        <mxCell id="47yzpQjx6dCV3XtQbYlD-3" value="Generate Mask channle based on points" style="rounded=1;whiteSpace=wrap;html=1;" vertex="1" parent="1">
          <mxGeometry x="110" y="290" width="120" height="60" as="geometry" />
        </mxCell>
        <mxCell id="47yzpQjx6dCV3XtQbYlD-8" value="1. generate canvas&lt;br style=&quot;border-color: var(--border-color); padding: 0px; margin: 0px;&quot;&gt;2. Annotation Overlay" style="text;html=1;align=left;verticalAlign=middle;resizable=0;points=[];autosize=1;strokeColor=none;fillColor=none;" vertex="1" parent="1">
          <mxGeometry x="240" y="300" width="140" height="40" as="geometry" />
        </mxCell>
        <mxCell id="47yzpQjx6dCV3XtQbYlD-13" value="" style="edgeStyle=orthogonalEdgeStyle;rounded=0;orthogonalLoop=1;jettySize=auto;html=1;" edge="1" parent="1" source="47yzpQjx6dCV3XtQbYlD-10" target="47yzpQjx6dCV3XtQbYlD-12">
          <mxGeometry relative="1" as="geometry" />
        </mxCell>
        <mxCell id="47yzpQjx6dCV3XtQbYlD-10" value="set Alpha channle" style="whiteSpace=wrap;html=1;rounded=1;" vertex="1" parent="1">
          <mxGeometry x="110" y="380" width="120" height="60" as="geometry" />
        </mxCell>
        <mxCell id="47yzpQjx6dCV3XtQbYlD-20" value="" style="edgeStyle=orthogonalEdgeStyle;rounded=0;orthogonalLoop=1;jettySize=auto;html=1;" edge="1" parent="1" source="47yzpQjx6dCV3XtQbYlD-12" target="47yzpQjx6dCV3XtQbYlD-19">
          <mxGeometry relative="1" as="geometry" />
        </mxCell>
        <mxCell id="47yzpQjx6dCV3XtQbYlD-12" value="resize image" style="whiteSpace=wrap;html=1;rounded=1;" vertex="1" parent="1">
          <mxGeometry x="100" y="470" width="140" height="60" as="geometry" />
        </mxCell>
        <mxCell id="47yzpQjx6dCV3XtQbYlD-22" value="" style="edgeStyle=orthogonalEdgeStyle;rounded=0;orthogonalLoop=1;jettySize=auto;html=1;" edge="1" parent="1" source="47yzpQjx6dCV3XtQbYlD-19" target="47yzpQjx6dCV3XtQbYlD-21">
          <mxGeometry relative="1" as="geometry" />
        </mxCell>
        <mxCell id="47yzpQjx6dCV3XtQbYlD-19" value="Inference Graph" style="whiteSpace=wrap;html=1;rounded=1;" vertex="1" parent="1">
          <mxGeometry x="110" y="560" width="120" height="60" as="geometry" />
        </mxCell>
        <mxCell id="47yzpQjx6dCV3XtQbYlD-21" value="TensorToSegmentation" style="whiteSpace=wrap;html=1;rounded=1;" vertex="1" parent="1">
          <mxGeometry x="95" y="660" width="150" height="50" as="geometry" />
        </mxCell>
        <mxCell id="47yzpQjx6dCV3XtQbYlD-25" value="resize back" style="text;html=1;align=left;verticalAlign=middle;resizable=0;points=[];autosize=1;strokeColor=none;fillColor=none;" vertex="1" parent="1">
          <mxGeometry x="250" y="670" width="80" height="30" as="geometry" />
        </mxCell>
        <mxCell id="47yzpQjx6dCV3XtQbYlD-26" value="inference engine" style="text;html=1;align=left;verticalAlign=middle;resizable=0;points=[];autosize=1;strokeColor=none;fillColor=none;" vertex="1" parent="1">
          <mxGeometry x="240" y="575" width="110" height="30" as="geometry" />
        </mxCell>
      </root>
    </mxGraphModel>
  </diagram>
</mxfile>
